<svg width="79" height="36" viewBox="0 0 79 36" fill="none" xmlns="http://www.w3.org/2000/svg">
<path d="M4.711 15.21C3.97367 15.21 3.30867 15.0817 2.716 14.825C2.128 14.5683 1.64267 14.202 1.26 13.726C0.882 13.2453 0.641667 12.676 0.539 12.018L2.289 11.752C2.43833 12.3493 2.744 12.8113 3.206 13.138C3.67267 13.4647 4.20933 13.628 4.816 13.628C5.17533 13.628 5.51367 13.572 5.831 13.46C6.14833 13.348 6.405 13.1847 6.601 12.97C6.80167 12.7553 6.902 12.4917 6.902 12.179C6.902 12.039 6.87867 11.9107 6.832 11.794C6.78533 11.6727 6.71533 11.5653 6.622 11.472C6.53333 11.3787 6.41667 11.2947 6.272 11.22C6.132 11.1407 5.96867 11.073 5.782 11.017L3.178 10.247C2.954 10.1817 2.71133 10.0953 2.45 9.988C2.19333 9.876 1.94833 9.72433 1.715 9.533C1.48633 9.337 1.29733 9.08967 1.148 8.791C1.00333 8.48767 0.931 8.11433 0.931 7.671C0.931 7.02233 1.09433 6.47867 1.421 6.04C1.75233 5.59667 2.19567 5.26533 2.751 5.046C3.311 4.82667 3.93167 4.71933 4.613 4.724C5.30367 4.72867 5.91967 4.84767 6.461 5.081C7.00233 5.30967 7.455 5.64333 7.819 6.082C8.183 6.52067 8.43967 7.05033 8.589 7.671L6.776 7.986C6.70133 7.63133 6.55667 7.33033 6.342 7.083C6.132 6.831 5.873 6.63967 5.565 6.509C5.26167 6.37833 4.93733 6.30833 4.592 6.299C4.256 6.29433 3.94333 6.34567 3.654 6.453C3.36933 6.55567 3.13833 6.705 2.961 6.901C2.78833 7.097 2.702 7.32567 2.702 7.587C2.702 7.83433 2.77667 8.03733 2.926 8.196C3.07533 8.35 3.25967 8.47367 3.479 8.567C3.703 8.65567 3.92933 8.73033 4.158 8.791L5.964 9.295C6.21133 9.36033 6.489 9.449 6.797 9.561C7.105 9.673 7.40133 9.82933 7.686 10.03C7.97067 10.2307 8.204 10.4943 8.386 10.821C8.57267 11.1477 8.666 11.563 8.666 12.067C8.666 12.5897 8.55633 13.0493 8.337 13.446C8.12233 13.838 7.83067 14.1647 7.462 14.426C7.09333 14.6873 6.671 14.8833 6.195 15.014C5.72367 15.1447 5.229 15.21 4.711 15.21ZM13.0162 15.217C12.4562 15.217 11.9942 15.1237 11.6302 14.937C11.2662 14.7503 10.9768 14.5123 10.7622 14.223C10.5475 13.9337 10.3888 13.6257 10.2862 13.299C10.1835 12.9723 10.1158 12.6643 10.0832 12.375C10.0552 12.081 10.0412 11.843 10.0412 11.661V7.44H11.7492V11.08C11.7492 11.3133 11.7655 11.577 11.7982 11.871C11.8308 12.1603 11.9055 12.4403 12.0222 12.711C12.1435 12.977 12.3208 13.1963 12.5542 13.369C12.7922 13.5417 13.1118 13.628 13.5132 13.628C13.7278 13.628 13.9402 13.593 14.1502 13.523C14.3602 13.453 14.5492 13.334 14.7172 13.166C14.8898 12.9933 15.0275 12.7577 15.1302 12.459C15.2328 12.1603 15.2842 11.7823 15.2842 11.325L16.2852 11.752C16.2852 12.396 16.1592 12.9793 15.9072 13.502C15.6598 14.0247 15.2935 14.4423 14.8082 14.755C14.3228 15.063 13.7255 15.217 13.0162 15.217ZM15.4872 15V12.655H15.2842V7.44H16.9782V15H15.4872ZM21.8638 15.21C20.9305 15.21 20.1722 15 19.5888 14.58C19.0055 14.16 18.6508 13.5697 18.5248 12.809L20.2468 12.543C20.3355 12.9163 20.5315 13.2103 20.8348 13.425C21.1382 13.6397 21.5208 13.747 21.9828 13.747C22.3888 13.747 22.7015 13.6677 22.9208 13.509C23.1448 13.3457 23.2568 13.124 23.2568 12.844C23.2568 12.6713 23.2148 12.5337 23.1308 12.431C23.0515 12.3237 22.8742 12.221 22.5988 12.123C22.3235 12.025 21.9012 11.9013 21.3318 11.752C20.6972 11.584 20.1932 11.4043 19.8198 11.213C19.4465 11.017 19.1782 10.786 19.0148 10.52C18.8515 10.254 18.7698 9.932 18.7698 9.554C18.7698 9.08267 18.8935 8.672 19.1408 8.322C19.3882 7.972 19.7335 7.70367 20.1768 7.517C20.6202 7.32567 21.1428 7.23 21.7448 7.23C22.3328 7.23 22.8532 7.321 23.3058 7.503C23.7632 7.685 24.1318 7.944 24.4118 8.28C24.6918 8.616 24.8645 9.01033 24.9298 9.463L23.2078 9.771C23.1658 9.449 23.0188 9.19467 22.7668 9.008C22.5195 8.82133 22.1882 8.71633 21.7728 8.693C21.3762 8.66967 21.0565 8.73033 20.8138 8.875C20.5712 9.015 20.4498 9.21333 20.4498 9.47C20.4498 9.61467 20.4988 9.73833 20.5968 9.841C20.6948 9.94367 20.8908 10.0463 21.1848 10.149C21.4835 10.2517 21.9268 10.3777 22.5148 10.527C23.1168 10.681 23.5975 10.8583 23.9568 11.059C24.3208 11.255 24.5822 11.4907 24.7408 11.766C24.9042 12.0413 24.9858 12.375 24.9858 12.767C24.9858 13.5277 24.7082 14.125 24.1528 14.559C23.6022 14.993 22.8392 15.21 21.8638 15.21ZM28.6331 15.21C28.0871 15.21 27.6251 15.1073 27.2471 14.902C26.8691 14.692 26.5821 14.4143 26.3861 14.069C26.1947 13.7237 26.0991 13.3433 26.0991 12.928C26.0991 12.564 26.1597 12.2373 26.2811 11.948C26.4024 11.654 26.5891 11.402 26.8411 11.192C27.0931 10.9773 27.4197 10.8023 27.8211 10.667C28.1244 10.569 28.4791 10.4803 28.8851 10.401C29.2957 10.3217 29.7391 10.2493 30.2151 10.184C30.6957 10.114 31.1974 10.0393 31.7201 9.96L31.1181 10.303C31.1227 9.78033 31.0061 9.39533 30.7681 9.148C30.5301 8.90067 30.1287 8.777 29.5641 8.777C29.2234 8.777 28.8944 8.85633 28.5771 9.015C28.2597 9.17367 28.0381 9.44667 27.9121 9.834L26.3721 9.351C26.5587 8.71167 26.9134 8.19833 27.4361 7.811C27.9634 7.42367 28.6727 7.23 29.5641 7.23C30.2361 7.23 30.8264 7.33967 31.3351 7.559C31.8484 7.77833 32.2287 8.13767 32.4761 8.637C32.6114 8.903 32.6931 9.176 32.7211 9.456C32.7491 9.73133 32.7631 10.0323 32.7631 10.359V15H31.2861V13.362L31.5311 13.628C31.1904 14.174 30.7914 14.5753 30.3341 14.832C29.8814 15.084 29.3144 15.21 28.6331 15.21ZM28.9691 13.866C29.3517 13.866 29.6784 13.7983 29.9491 13.663C30.2197 13.5277 30.4344 13.362 30.5931 13.166C30.7564 12.97 30.8661 12.7857 30.9221 12.613C31.0107 12.3983 31.0597 12.1533 31.0691 11.878C31.0831 11.598 31.0901 11.3717 31.0901 11.199L31.6081 11.353C31.0994 11.4323 30.6631 11.5023 30.2991 11.563C29.9351 11.6237 29.6224 11.682 29.3611 11.738C29.0997 11.7893 28.8687 11.8477 28.6681 11.913C28.4721 11.983 28.3064 12.0647 28.1711 12.158C28.0357 12.2513 27.9307 12.3587 27.8561 12.48C27.7861 12.6013 27.7511 12.7437 27.7511 12.907C27.7511 13.0937 27.7977 13.2593 27.8911 13.404C27.9844 13.544 28.1197 13.656 28.2971 13.74C28.4791 13.824 28.7031 13.866 28.9691 13.866ZM39.8145 15V11.36C39.8145 11.122 39.7981 10.8583 39.7655 10.569C39.7328 10.2797 39.6558 10.002 39.5345 9.736C39.4178 9.46533 39.2405 9.24367 39.0025 9.071C38.7691 8.89833 38.4518 8.812 38.0505 8.812C37.8358 8.812 37.6235 8.847 37.4135 8.917C37.2035 8.987 37.0121 9.10833 36.8395 9.281C36.6715 9.449 36.5361 9.68233 36.4335 9.981C36.3308 10.275 36.2795 10.653 36.2795 11.115L35.2785 10.688C35.2785 10.044 35.4021 9.46067 35.6495 8.938C35.9015 8.41533 36.2701 8 36.7555 7.692C37.2408 7.37933 37.8381 7.223 38.5475 7.223C39.1075 7.223 39.5695 7.31633 39.9335 7.503C40.2975 7.68967 40.5868 7.92767 40.8015 8.217C41.0161 8.50633 41.1748 8.81433 41.2775 9.141C41.3801 9.46767 41.4455 9.778 41.4735 10.072C41.5061 10.3613 41.5225 10.597 41.5225 10.779V15H39.8145ZM34.5715 15V7.44H36.0765V9.785H36.2795V15H34.5715ZM48.5739 15V6.502H45.3119V4.92H53.5229V6.502H50.2609V15H48.5739ZM56.7798 15.217C56.2198 15.217 55.7578 15.1237 55.3938 14.937C55.0298 14.7503 54.7405 14.5123 54.5258 14.223C54.3112 13.9337 54.1525 13.6257 54.0498 13.299C53.9472 12.9723 53.8795 12.6643 53.8468 12.375C53.8188 12.081 53.8048 11.843 53.8048 11.661V7.44H55.5128V11.08C55.5128 11.3133 55.5292 11.577 55.5618 11.871C55.5945 12.1603 55.6692 12.4403 55.7858 12.711C55.9072 12.977 56.0845 13.1963 56.3178 13.369C56.5558 13.5417 56.8755 13.628 57.2768 13.628C57.4915 13.628 57.7038 13.593 57.9138 13.523C58.1238 13.453 58.3128 13.334 58.4808 13.166C58.6535 12.9933 58.7912 12.7577 58.8938 12.459C58.9965 12.1603 59.0478 11.7823 59.0478 11.325L60.0488 11.752C60.0488 12.396 59.9228 12.9793 59.6708 13.502C59.4235 14.0247 59.0572 14.4423 58.5718 14.755C58.0865 15.063 57.4892 15.217 56.7798 15.217ZM59.2508 15V12.655H59.0478V7.44H60.7418V15H59.2508ZM62.7085 15V7.44H64.1995V9.281L64.0175 9.043C64.1108 8.791 64.2345 8.56233 64.3885 8.357C64.5472 8.147 64.7362 7.97433 64.9555 7.839C65.1422 7.713 65.3475 7.615 65.5715 7.545C65.8002 7.47033 66.0335 7.426 66.2715 7.412C66.5095 7.39333 66.7405 7.40267 66.9645 7.44V9.015C66.7405 8.94967 66.4815 8.92867 66.1875 8.952C65.8982 8.97533 65.6368 9.057 65.4035 9.197C65.1702 9.323 64.9788 9.484 64.8295 9.68C64.6848 9.876 64.5775 10.1 64.5075 10.352C64.4375 10.5993 64.4025 10.8677 64.4025 11.157V15H62.7085ZM68.4403 6.292V4.745H70.1273V6.292H68.4403ZM68.4403 15V7.44H70.1273V15H68.4403ZM75.1431 15.21C74.2098 15.21 73.4515 15 72.8681 14.58C72.2848 14.16 71.9301 13.5697 71.8041 12.809L73.5261 12.543C73.6148 12.9163 73.8108 13.2103 74.1141 13.425C74.4175 13.6397 74.8001 13.747 75.2621 13.747C75.6681 13.747 75.9808 13.6677 76.2001 13.509C76.4241 13.3457 76.5361 13.124 76.5361 12.844C76.5361 12.6713 76.4941 12.5337 76.4101 12.431C76.3308 12.3237 76.1535 12.221 75.8781 12.123C75.6028 12.025 75.1805 11.9013 74.6111 11.752C73.9765 11.584 73.4725 11.4043 73.0991 11.213C72.7258 11.017 72.4575 10.786 72.2941 10.52C72.1308 10.254 72.0491 9.932 72.0491 9.554C72.0491 9.08267 72.1728 8.672 72.4201 8.322C72.6675 7.972 73.0128 7.70367 73.4561 7.517C73.8995 7.32567 74.4221 7.23 75.0241 7.23C75.6121 7.23 76.1325 7.321 76.5851 7.503C77.0425 7.685 77.4111 7.944 77.6911 8.28C77.9711 8.616 78.1438 9.01033 78.2091 9.463L76.4871 9.771C76.4451 9.449 76.2981 9.19467 76.0461 9.008C75.7988 8.82133 75.4675 8.71633 75.0521 8.693C74.6555 8.66967 74.3358 8.73033 74.0931 8.875C73.8505 9.015 73.7291 9.21333 73.7291 9.47C73.7291 9.61467 73.7781 9.73833 73.8761 9.841C73.9741 9.94367 74.1701 10.0463 74.4641 10.149C74.7628 10.2517 75.2061 10.3777 75.7941 10.527C76.3961 10.681 76.8768 10.8583 77.2361 11.059C77.6001 11.255 77.8615 11.4907 78.0201 11.766C78.1835 12.0413 78.2651 12.375 78.2651 12.767C78.2651 13.5277 77.9875 14.125 77.4321 14.559C76.8815 14.993 76.1185 15.21 75.1431 15.21Z" fill="black"/>
<path d="M24.43 30V25.87L21 19.92H22.967L25.284 23.938L27.594 19.92H29.561L26.138 25.87V30H24.43ZM32.7565 30.21C32.0005 30.21 31.3402 30.0397 30.7755 29.699C30.2108 29.3583 29.7722 28.8893 29.4595 28.292C29.1515 27.69 28.9975 26.9993 28.9975 26.22C28.9975 25.4267 29.1562 24.7313 29.4735 24.134C29.7908 23.5367 30.2318 23.07 30.7965 22.734C31.3612 22.398 32.0145 22.23 32.7565 22.23C33.5172 22.23 34.1798 22.4003 34.7445 22.741C35.3092 23.0817 35.7478 23.553 36.0605 24.155C36.3732 24.7523 36.5295 25.4407 36.5295 26.22C36.5295 27.004 36.3708 27.697 36.0535 28.299C35.7408 28.8963 35.3022 29.3653 34.7375 29.706C34.1728 30.042 33.5125 30.21 32.7565 30.21ZM32.7565 28.628C33.4285 28.628 33.9278 28.404 34.2545 27.956C34.5812 27.508 34.7445 26.9293 34.7445 26.22C34.7445 25.4873 34.5788 24.904 34.2475 24.47C33.9162 24.0313 33.4192 23.812 32.7565 23.812C32.3038 23.812 31.9305 23.9147 31.6365 24.12C31.3472 24.3207 31.1325 24.603 30.9925 24.967C30.8525 25.3263 30.7825 25.744 30.7825 26.22C30.7825 26.9527 30.9482 27.5383 31.2795 27.977C31.6155 28.411 32.1078 28.628 32.7565 28.628ZM41.2498 33.57C40.8298 33.57 40.4261 33.5047 40.0388 33.374C39.6561 33.2433 39.3108 33.0543 39.0028 32.807C38.6948 32.5643 38.4428 32.2703 38.2468 31.925L39.8008 31.155C39.9455 31.4303 40.1485 31.6333 40.4098 31.764C40.6758 31.8993 40.9581 31.967 41.2568 31.967C41.6068 31.967 41.9195 31.904 42.1948 31.778C42.4701 31.6567 42.6825 31.4747 42.8318 31.232C42.9858 30.994 43.0581 30.6953 43.0488 30.336V28.187H43.2588V22.44H44.7358V30.364C44.7358 30.5553 44.7265 30.7373 44.7078 30.91C44.6938 31.0873 44.6681 31.26 44.6308 31.428C44.5188 31.918 44.3041 32.3193 43.9868 32.632C43.6695 32.9493 43.2751 33.185 42.8038 33.339C42.3371 33.493 41.8191 33.57 41.2498 33.57ZM41.1028 30.21C40.4075 30.21 39.8008 30.035 39.2828 29.685C38.7648 29.335 38.3635 28.859 38.0788 28.257C37.7941 27.655 37.6518 26.976 37.6518 26.22C37.6518 25.4547 37.7941 24.7733 38.0788 24.176C38.3681 23.574 38.7765 23.1003 39.3038 22.755C39.8311 22.405 40.4518 22.23 41.1658 22.23C41.8845 22.23 42.4865 22.405 42.9718 22.755C43.4618 23.1003 43.8328 23.574 44.0848 24.176C44.3368 24.778 44.4628 25.4593 44.4628 26.22C44.4628 26.9713 44.3368 27.6503 44.0848 28.257C43.8328 28.859 43.4571 29.335 42.9578 29.685C42.4585 30.035 41.8401 30.21 41.1028 30.21ZM41.3618 28.698C41.8145 28.698 42.1785 28.5953 42.4538 28.39C42.7338 28.18 42.9368 27.8883 43.0628 27.515C43.1935 27.1417 43.2588 26.71 43.2588 26.22C43.2588 25.7253 43.1935 25.2937 43.0628 24.925C42.9368 24.5517 42.7385 24.2623 42.4678 24.057C42.1971 23.847 41.8471 23.742 41.4178 23.742C40.9651 23.742 40.5918 23.854 40.2978 24.078C40.0038 24.2973 39.7868 24.596 39.6468 24.974C39.5068 25.3473 39.4368 25.7627 39.4368 26.22C39.4368 26.682 39.5045 27.102 39.6398 27.48C39.7798 27.8533 39.9921 28.1497 40.2768 28.369C40.5615 28.5883 40.9231 28.698 41.3618 28.698ZM48.8128 30.21C48.2668 30.21 47.8048 30.1073 47.4268 29.902C47.0488 29.692 46.7618 29.4143 46.5658 29.069C46.3744 28.7237 46.2788 28.3433 46.2788 27.928C46.2788 27.564 46.3394 27.2373 46.4608 26.948C46.5821 26.654 46.7688 26.402 47.0208 26.192C47.2728 25.9773 47.5994 25.8023 48.0008 25.667C48.3041 25.569 48.6588 25.4803 49.0648 25.401C49.4754 25.3217 49.9188 25.2493 50.3948 25.184C50.8754 25.114 51.3771 25.0393 51.8998 24.96L51.2978 25.303C51.3024 24.7803 51.1858 24.3953 50.9478 24.148C50.7098 23.9007 50.3084 23.777 49.7438 23.777C49.4031 23.777 49.0741 23.8563 48.7568 24.015C48.4394 24.1737 48.2178 24.4467 48.0918 24.834L46.5518 24.351C46.7384 23.7117 47.0931 23.1983 47.6158 22.811C48.1431 22.4237 48.8524 22.23 49.7438 22.23C50.4158 22.23 51.0061 22.3397 51.5148 22.559C52.0281 22.7783 52.4084 23.1377 52.6558 23.637C52.7911 23.903 52.8728 24.176 52.9008 24.456C52.9288 24.7313 52.9428 25.0323 52.9428 25.359V30H51.4658V28.362L51.7108 28.628C51.3701 29.174 50.9711 29.5753 50.5138 29.832C50.0611 30.084 49.4941 30.21 48.8128 30.21ZM49.1488 28.866C49.5314 28.866 49.8581 28.7983 50.1288 28.663C50.3994 28.5277 50.6141 28.362 50.7728 28.166C50.9361 27.97 51.0458 27.7857 51.1018 27.613C51.1904 27.3983 51.2394 27.1533 51.2488 26.878C51.2628 26.598 51.2698 26.3717 51.2698 26.199L51.7878 26.353C51.2791 26.4323 50.8428 26.5023 50.4788 26.563C50.1148 26.6237 49.8021 26.682 49.5408 26.738C49.2794 26.7893 49.0484 26.8477 48.8478 26.913C48.6518 26.983 48.4861 27.0647 48.3508 27.158C48.2154 27.2513 48.1104 27.3587 48.0358 27.48C47.9658 27.6013 47.9308 27.7437 47.9308 27.907C47.9308 28.0937 47.9774 28.2593 48.0708 28.404C48.1641 28.544 48.2994 28.656 48.4768 28.74C48.6588 28.824 48.8828 28.866 49.1488 28.866Z" fill="black"/>
</svg>
