<?xml version="1.0" standalone="no"?>
<!DOCTYPE svg PUBLIC "-//W3C//DTD SVG 20010904//EN"
 "http://www.w3.org/TR/2001/REC-SVG-20010904/DTD/svg10.dtd">
<svg version="1.0" xmlns="http://www.w3.org/2000/svg"
 width="360.000000pt" height="276.000000pt" viewBox="0 0 360.000000 276.000000"
 preserveAspectRatio="xMidYMid meet">

<g transform="translate(0.000000,276.000000) scale(0.100000,-0.100000)"
fill="#000000" stroke="none">
<path d="M1485 2596 c-49 -33 -93 -77 -167 -168 -21 -26 -58 -60 -83 -77 -39
-26 -50 -29 -67 -20 -19 10 -20 9 -14 -12 4 -13 12 -72 18 -131 9 -89 8 -126
-7 -225 -9 -65 -20 -121 -23 -124 -80 -70 -553 -498 -595 -538 l-58 -56 7
-190 c4 -122 11 -193 18 -198 6 -4 34 -5 61 -1 65 7 351 -40 373 -62 12 -13
28 -15 73 -10 34 4 107 1 176 -8 104 -13 358 -36 404 -36 14 0 15 -6 7 -47
-17 -91 -17 -91 132 -92 71 0 130 2 130 7 0 4 -26 19 -58 34 -82 39 -122 66
-122 81 0 11 50 15 263 20 177 4 320 13 442 28 99 12 191 21 205 20 69 -5 105
0 113 14 4 8 18 15 29 15 12 0 90 11 173 25 103 17 160 23 176 17 15 -6 33 -5
47 1 22 10 22 13 22 203 l0 192 -525 473 c-289 260 -525 476 -525 479 0 9 198
90 222 90 13 0 64 11 113 25 50 14 111 25 138 25 44 0 183 32 196 46 8 8 -284
-3 -419 -15 -82 -8 -124 -18 -192 -45 -102 -42 -152 -46 -184 -15 -20 19 -22
28 -17 67 5 36 3 46 -11 54 -11 6 -15 16 -11 29 9 28 -39 107 -71 115 -63 16
-154 -22 -154 -65 0 -8 12 -29 28 -45 15 -17 -17 11 -70 62 -65 61 -105 92
-120 92 -13 0 -46 -15 -73 -34z m127 -136 c94 -106 94 -110 12 -183 -92 -82
-172 -161 -155 -151 27 14 1 -14 -108 -115 -74 -69 -110 -96 -110 -84 1 10 -3
55 -7 101 l-7 83 31 11 c41 16 40 36 -3 78 -42 41 -43 49 -9 81 14 13 34 38
45 56 18 28 223 193 241 193 4 0 35 -32 70 -70z m108 -150 c0 -22 -149 -207
-172 -214 -67 -17 -61 -5 47 108 109 112 125 126 125 106z m238 -8 c2 -7 -2
-10 -12 -6 -9 3 -16 11 -16 16 0 13 23 5 28 -10z m-244 -44 c-62 -101 -400
-568 -411 -568 -8 0 -13 4 -11 8 4 12 422 572 426 572 2 0 0 -6 -4 -12z m40
-50 c4 -29 10 -63 13 -75 5 -22 3 -23 -61 -23 -36 0 -66 2 -66 5 0 13 95 153
101 150 3 -3 9 -28 13 -57z m258 12 c12 -17 28 -28 35 -26 12 5 116 -94 108
-103 -2 -2 -20 0 -39 3 -29 6 -42 18 -81 76 -25 38 -51 71 -58 73 -9 4 -9 6 0
6 7 1 22 -13 35 -29z m-472 -45 c-24 -25 -46 -45 -49 -45 -3 0 15 20 39 45 24
25 46 45 49 45 3 0 -15 -20 -39 -45z m586 -7 l29 -33 -32 29 c-18 17 -33 31
-33 33 0 8 8 1 36 -29z m632 -566 l382 -344 -2 -191 c-2 -141 -6 -191 -15
-195 -10 -3 -13 31 -13 147 l0 151 -200 0 c-171 0 -200 2 -200 15 0 13 29 15
200 15 l200 0 0 29 c0 24 -32 58 -227 237 -602 554 -723 666 -723 670 0 3 48
-39 108 -92 59 -54 279 -252 490 -442z m-1079 456 c-1 -42 -1 -42 -10 -13 -5
17 -7 36 -4 43 9 24 15 11 14 -30z m41 2 c0 -16 -4 -32 -10 -35 -6 -4 -10 10
-10 35 0 25 4 39 10 35 6 -3 10 -19 10 -35z m30 0 c0 -22 -4 -40 -10 -40 -5 0
-10 18 -10 40 0 22 5 40 10 40 6 0 10 -18 10 -40z m527 -241 c114 -155 255
-345 313 -423 l106 -142 -1 -95 c0 -51 -2 -154 -3 -226 l-2 -133 -25 0 -25 0
0 175 0 175 -465 0 -465 0 0 21 c0 12 8 23 19 26 22 6 31 31 31 94 0 25 6 68
14 95 14 46 46 205 46 225 0 5 -12 1 -27 -8 -17 -11 -9 2 22 33 28 28 51 50
53 49 3 -2 32 -415 32 -458 l0 -27 368 2 367 3 -1 26 c-1 16 -103 172 -281
430 -251 363 -301 439 -289 439 2 0 98 -126 213 -281z m-627 236 c0 -19 -4
-35 -10 -35 -5 0 -10 16 -10 35 0 19 5 35 10 35 6 0 10 -16 10 -35z m-130 3
c0 -13 -5 -30 -10 -38 -7 -11 -10 -5 -10 23 0 20 5 37 10 37 6 0 10 -10 10
-22z m30 18 c0 -3 -4 -8 -10 -11 -5 -3 -10 -1 -10 4 0 6 5 11 10 11 6 0 10 -2
10 -4z m570 -6 c0 -5 -2 -10 -4 -10 -3 0 -8 5 -11 10 -3 6 -1 10 4 10 6 0 11
-4 11 -10z m30 -21 c0 -17 -4 -28 -10 -24 -5 3 -10 17 -10 31 0 13 5 24 10 24
6 0 10 -14 10 -31z m-660 -9 c0 -20 -5 -30 -15 -30 -10 0 -15 10 -15 30 0 20
5 30 15 30 10 0 15 -10 15 -30z m700 0 c0 -16 -4 -30 -10 -30 -5 0 -10 14 -10
30 0 17 5 30 10 30 6 0 10 -13 10 -30z m-407 -77 c-3 -27 -7 -50 -9 -52 -2 -2
4 -14 13 -25 10 -12 11 -15 3 -8 -17 15 -43 15 -93 1 -45 -12 -110 -66 -103
-85 4 -9 -2 -14 -18 -14 -12 0 -56 -11 -96 -25 -40 -14 -75 -23 -77 -21 -2 2
32 61 77 132 l80 129 48 6 c26 3 77 7 114 7 l68 2 -7 -47z m417 -139 c61 -97
110 -177 108 -178 -2 0 -96 0 -210 2 -198 3 -208 4 -208 22 0 11 12 26 29 35
16 8 52 47 79 86 42 58 53 83 62 140 7 38 15 69 20 69 5 0 58 -79 120 -176z
m-726 154 c-22 -38 -207 -288 -212 -288 -4 0 -7 38 -6 86 l1 85 58 59 c56 57
73 65 138 69 20 1 26 -3 21 -11z m977 -171 c92 -95 165 -174 164 -175 -2 -2
-46 -1 -97 3 l-93 7 -90 121 c-49 66 -107 145 -129 175 l-38 54 58 -7 59 -7
166 -171z m-620 36 c13 -16 12 -17 -3 -4 -10 7 -18 15 -18 17 0 8 8 3 21 -13z
m-713 -56 c-20 -18 -158 -144 -307 -282 -229 -211 -271 -254 -271 -277 l0 -28
200 0 c193 0 200 -1 200 -20 0 -19 -7 -20 -200 -20 l-200 0 0 -145 c0 -122 -2
-145 -15 -145 -13 0 -15 28 -15 194 l0 193 58 50 c31 28 172 154 312 282 140
127 260 231 265 230 6 0 -7 -14 -27 -32z m739 -19 c-3 -7 -5 -2 -5 12 0 14 2
19 5 13 2 -7 2 -19 0 -25z m-176 -35 c13 -16 12 -17 -3 -4 -17 13 -22 21 -14
21 2 0 10 -8 17 -17z m-541 -48 l0 -55 -57 0 -57 0 54 55 c30 30 56 55 57 55
2 0 3 -25 3 -55z m568 0 c-3 -3 -9 2 -12 12 -6 14 -5 15 5 6 7 -7 10 -15 7
-18z m-3 -54 c-3 -12 -16 -26 -28 -32 l-22 -12 23 25 c12 13 22 30 22 38 0 7
3 11 6 7 3 -3 3 -15 -1 -26z m215 -47 c0 -63 -16 -66 -18 -3 -2 38 3 59 14 59
2 0 4 -25 4 -56z m31 4 c2 -26 0 -50 -4 -54 -4 -4 -7 19 -7 51 0 69 7 70 11 3z
m39 3 c0 -28 -4 -53 -10 -56 -6 -4 -10 15 -10 49 0 31 5 56 10 56 6 0 10 -22
10 -49z m30 -1 c0 -27 -4 -50 -10 -50 -5 0 -10 23 -10 50 0 28 5 50 10 50 6 0
10 -22 10 -50z m30 -6 c0 -30 -4 -53 -9 -50 -4 3 -7 27 -5 53 3 55 2 53 9 53
3 0 5 -25 5 -56z m40 1 c0 -24 -4 -47 -10 -50 -6 -4 -10 15 -10 50 0 35 4 54
10 50 6 -3 10 -26 10 -50z m30 -6 c0 -27 -4 -49 -10 -49 -5 0 -10 25 -10 56 0
34 4 53 10 49 6 -3 10 -28 10 -56z m30 1 c0 -27 -4 -50 -10 -50 -5 0 -10 23
-10 50 0 28 5 50 10 50 6 0 10 -22 10 -50z m27 -27 c-2 -16 -4 -3 -4 27 0 30
2 43 4 28 2 -16 2 -40 0 -55z m32 -17 c-5 -6 -8 12 -8 45 l2 54 7 -45 c4 -25
4 -49 -1 -54z m41 44 c0 -27 -4 -50 -10 -50 -5 0 -10 23 -10 50 0 28 5 50 10
50 6 0 10 -22 10 -50z m30 0 c0 -27 -4 -50 -10 -50 -5 0 -10 23 -10 50 0 28 5
50 10 50 6 0 10 -22 10 -50z m40 0 c0 -27 -4 -50 -10 -50 -5 0 -10 23 -10 50
0 28 5 50 10 50 6 0 10 -22 10 -50z m-1220 -5 c0 -25 -4 -45 -10 -45 -11 0
-14 73 -3 83 11 12 13 8 13 -38z m40 0 c0 -25 -4 -45 -10 -45 -5 0 -10 20 -10
45 0 25 5 45 10 45 6 0 10 -20 10 -45z m1330 35 c0 -5 -4 -10 -10 -10 -5 0
-10 5 -10 10 0 6 5 10 10 10 6 0 10 -4 10 -10z m30 -26 c0 -21 -4 -33 -10 -29
-5 3 -10 19 -10 36 0 16 5 29 10 29 6 0 10 -16 10 -36z m30 -9 c0 -25 -4 -45
-10 -45 -5 0 -10 20 -10 45 0 25 5 45 10 45 6 0 10 -20 10 -45z m27 -22 c-2
-16 -4 -5 -4 22 0 28 2 40 4 28 2 -13 2 -35 0 -50z m43 16 c0 -21 -4 -39 -10
-39 -5 0 -10 21 -10 46 0 27 4 43 10 39 6 -3 10 -24 10 -46z m30 6 c0 -25 -4
-45 -10 -45 -5 0 -10 20 -10 45 0 25 5 45 10 45 6 0 10 -20 10 -45z m-1590 -5
c0 -25 -5 -40 -12 -40 -8 0 -13 15 -13 40 0 25 5 40 13 40 7 0 12 -15 12 -40z
m30 0 c0 -22 -4 -40 -10 -40 -5 0 -10 18 -10 40 0 22 5 40 10 40 6 0 10 -18
10 -40z m92 -12 c-9 -9 -12 -7 -12 12 0 19 3 21 12 12 9 -9 9 -15 0 -24z m476
18 c-10 -7 -18 -18 -18 -24 0 -6 -4 -14 -10 -17 -6 -3 -10 5 -10 19 0 15 7 26
18 29 32 8 37 6 20 -7z m-148 -21 c0 -14 -4 -25 -10 -25 -5 0 -10 11 -10 25 0
14 5 25 10 25 6 0 10 -11 10 -25z m30 0 c0 -14 -4 -25 -10 -25 -5 0 -10 11
-10 25 0 14 5 25 10 25 6 0 10 -11 10 -25z m30 -1 c0 -14 -4 -23 -9 -20 -5 3
-7 15 -4 26 7 28 13 25 13 -6z m40 1 c0 -14 -4 -25 -10 -25 -5 0 -10 11 -10
25 0 14 5 25 10 25 6 0 10 -11 10 -25z m-360 11 c0 -3 -49 -75 -110 -162 -64
-92 -110 -167 -110 -181 l0 -23 293 0 c162 0 296 -3 299 -6 3 -3 4 -14 1 -25
-5 -18 -17 -19 -299 -19 l-294 0 0 -181 c0 -161 -2 -180 -16 -175 -9 3 -20 6
-25 6 -5 0 -9 97 -9 230 l0 230 116 155 c78 104 123 155 135 155 11 0 19 -2
19 -4z m130 -16 c0 -11 -7 -20 -15 -20 -8 0 -15 9 -15 20 0 11 7 20 15 20 8 0
15 -9 15 -20z m30 0 c0 -11 -4 -20 -10 -20 -5 0 -10 9 -10 20 0 11 5 20 10 20
6 0 10 -9 10 -20z m30 0 c0 -11 -4 -20 -10 -20 -5 0 -10 9 -10 20 0 11 5 20
10 20 6 0 10 -9 10 -20z m27 -12 c-3 -7 -5 -2 -5 12 0 14 2 19 5 13 2 -7 2
-19 0 -25z m163 -173 l0 -155 -270 0 c-148 0 -270 3 -270 6 0 7 35 64 134 217
l56 87 175 0 175 0 0 -155z m862 25 c43 -69 85 -137 94 -152 l15 -28 -331 0
-330 0 -4 23 c-3 12 -8 82 -11 155 l-7 132 248 -2 247 -3 79 -125z m424 -31
l149 -149 -168 0 -167 0 0 25 c0 16 -32 68 -85 140 -48 64 -88 121 -91 128 -3
9 23 11 104 9 l108 -3 150 -150z m-1776 146 c0 -2 -40 -59 -90 -127 -52 -70
-90 -131 -90 -145 l0 -23 -167 0 -168 0 150 150 150 150 107 0 c60 0 108 -2
108 -5z m617 -287 c-3 -8 -6 -5 -6 6 -1 11 2 17 5 13 3 -3 4 -12 1 -19z
m-1117 -203 c0 -83 -4 -135 -10 -135 -6 0 -10 52 -10 135 0 83 4 135 10 135 6
0 10 -52 10 -135z m30 -6 c0 -91 -4 -138 -10 -134 -6 4 -10 62 -10 141 0 83 4
134 10 134 6 0 10 -54 10 -141z m29 -144 c-5 -5 -8 46 -8 140 l2 150 8 -140
c5 -86 4 -144 -2 -150z m41 140 c0 -90 -4 -145 -10 -145 -6 0 -10 55 -10 145
0 90 4 145 10 145 6 0 10 -55 10 -145z m30 -6 c0 -97 -4 -148 -10 -144 -6 4
-10 65 -10 151 0 89 4 144 10 144 6 0 10 -57 10 -151z m28 -1 c-1 -123 -2
-140 -8 -88 -12 100 -11 240 0 240 6 0 9 -56 8 -152z m29 -80 c-1 -46 -3 -11
-3 77 0 88 2 125 3 83 2 -42 2 -114 0 -160z m43 77 c0 -97 -4 -155 -10 -155
-6 0 -10 58 -10 155 0 97 4 155 10 155 6 0 10 -58 10 -155z m30 -6 c0 -104 -3
-158 -10 -154 -6 4 -10 68 -10 161 0 96 4 154 10 154 6 0 10 -60 10 -161z m30
1 c0 -100 -4 -160 -10 -160 -6 0 -10 60 -10 160 0 100 4 160 10 160 6 0 10
-60 10 -160z m27 -82 c-1 -46 -3 -9 -3 82 0 91 2 128 3 83 2 -46 2 -120 0
-165z m1780 0 c-1 -46 -3 -9 -3 82 0 91 2 128 3 83 2 -46 2 -120 0 -165z m43
88 c0 -93 -4 -157 -10 -161 -7 -4 -10 50 -10 154 0 101 4 161 10 161 6 0 10
-58 10 -154z m30 -1 c0 -97 -4 -155 -10 -155 -6 0 -10 58 -10 155 0 97 4 155
10 155 6 0 10 -58 10 -155z m30 -1 c0 -101 -3 -153 -10 -149 -6 4 -10 67 -10
156 0 93 4 149 10 149 6 0 10 -59 10 -156z m32 9 c-2 -82 -5 -150 -8 -152 -2
-2 -4 64 -4 147 0 84 3 152 8 152 4 0 6 -66 4 -147z m38 3 c0 -86 -4 -147 -10
-151 -6 -4 -10 47 -10 144 0 94 4 151 10 151 6 0 10 -55 10 -144z m30 -1 c0
-90 -4 -145 -10 -145 -6 0 -10 55 -10 145 0 90 4 145 10 145 6 0 10 -55 10
-145z m30 -1 c0 -101 -3 -143 -11 -139 -12 8 -10 285 3 285 4 0 8 -66 8 -146z
m34 9 c4 -86 3 -134 -4 -138 -7 -4 -10 41 -10 136 0 78 2 140 4 138 2 -2 7
-63 10 -136z m36 2 c0 -83 -4 -135 -10 -135 -6 0 -10 52 -10 135 0 83 4 135
10 135 6 0 10 -52 10 -135z m-1940 -40 c0 -103 -4 -165 -10 -165 -6 0 -10 62
-10 165 0 103 4 165 10 165 6 0 10 -62 10 -165z m40 -5 c0 -107 -4 -170 -10
-170 -6 0 -10 63 -10 170 0 107 4 170 10 170 6 0 10 -63 10 -170z m30 0 c0
-107 -4 -170 -10 -170 -6 0 -10 63 -10 170 0 107 4 170 10 170 6 0 10 -63 10
-170z m30 -7 c0 -111 -4 -173 -9 -168 -9 9 -3 345 6 345 1 0 3 -80 3 -177z
m40 -4 c0 -106 -4 -169 -10 -169 -6 0 -10 65 -10 176 0 114 3 173 10 169 6 -4
10 -73 10 -176z m30 6 c0 -110 -4 -175 -10 -175 -6 0 -10 65 -10 175 0 110 4
175 10 175 6 0 10 -65 10 -175z m30 -6 c0 -117 -3 -178 -10 -174 -6 4 -10 75
-10 181 0 109 4 174 10 174 6 0 10 -67 10 -181z m33 -6 c2 -95 0 -173 -4 -173
-5 0 -9 82 -8 183 0 100 2 178 4 172 2 -5 5 -88 8 -182z m37 7 c0 -113 -4
-180 -10 -180 -6 0 -10 67 -10 180 0 113 4 180 10 180 6 0 10 -67 10 -180z
m30 -5 c0 -117 -4 -185 -10 -185 -6 0 -10 68 -10 185 0 117 4 185 10 185 6 0
10 -68 10 -185z m30 0 c0 -117 -4 -185 -10 -185 -6 0 -10 56 -10 148 0 134 7
222 16 222 2 0 4 -83 4 -185z m40 0 c0 -117 -4 -185 -10 -185 -6 0 -10 68 -10
185 0 117 4 185 10 185 6 0 10 -68 10 -185z m30 0 c0 -117 -4 -185 -10 -185
-6 0 -10 68 -10 185 0 117 4 185 10 185 6 0 10 -68 10 -185z m30 -6 c0 -124
-3 -188 -10 -184 -6 4 -10 78 -10 191 0 116 4 184 10 184 6 0 10 -70 10 -191z
m27 -96 c-1 -54 -3 -10 -3 97 0 107 2 151 3 98 2 -54 2 -142 0 -195z m43 97
c0 -120 -4 -190 -10 -190 -6 0 -10 70 -10 190 0 120 4 190 10 190 6 0 10 -70
10 -190z m17 168 c-3 -8 -6 -5 -6 6 -1 11 2 17 5 13 3 -3 4 -12 1 -19z m143
-173 c0 -123 -4 -195 -10 -195 -6 0 -10 72 -10 195 0 123 4 195 10 195 6 0 10
-72 10 -195z m28 -2 l-1 -198 -9 183 c-9 169 -7 212 7 212 3 0 4 -89 3 -197z
m42 2 c0 -123 -4 -195 -10 -195 -6 0 -10 72 -10 195 0 123 4 195 10 195 6 0
10 -72 10 -195z m17 -103 c-1 -53 -3 -7 -3 103 0 110 2 154 3 97 2 -57 2 -147
0 -200z m42 98 c1 -127 -2 -190 -9 -190 -6 0 -10 66 -10 196 0 111 4 193 9
190 5 -3 9 -91 10 -196z m31 5 c0 -123 -4 -195 -10 -195 -6 0 -10 72 -10 195
0 123 4 195 10 195 6 0 10 -72 10 -195z m30 -2 c0 -113 -4 -193 -9 -188 -8 9
-3 385 5 385 2 0 4 -89 4 -197z m40 3 c0 -118 -3 -187 -10 -191 -7 -4 -10 57
-10 190 0 117 4 194 9 190 5 -3 10 -88 11 -189z m30 4 c0 -120 -4 -190 -10
-190 -6 0 -10 70 -10 190 0 120 4 190 10 190 6 0 10 -70 10 -190z m30 0 c0
-120 -4 -190 -10 -190 -6 0 -10 70 -10 190 0 120 4 190 10 190 6 0 10 -70 10
-190z m27 -97 c-1 -54 -3 -10 -3 97 0 107 2 151 3 98 2 -54 2 -142 0 -195z
m36 93 c1 -102 -1 -186 -5 -186 -4 0 -8 86 -8 192 0 105 2 189 5 186 3 -3 7
-89 8 -192z m37 4 c0 -120 -4 -190 -10 -190 -6 0 -10 70 -10 190 0 120 4 190
10 190 6 0 10 -70 10 -190z m30 5 c0 -117 -4 -185 -10 -185 -6 0 -10 68 -10
185 0 117 4 185 10 185 6 0 10 -68 10 -185z m27 -92 c-1 -54 -3 -12 -3 92 0
105 2 149 3 98 2 -51 2 -136 0 -190z m43 92 c0 -117 -4 -185 -10 -185 -6 0
-10 68 -10 185 0 117 4 185 10 185 6 0 10 -68 10 -185z m30 0 c0 -117 -4 -185
-10 -185 -6 0 -10 68 -10 185 0 117 4 185 10 185 6 0 10 -68 10 -185z m30 -1
c0 -121 -3 -183 -10 -179 -6 4 -10 77 -10 186 0 113 4 179 10 179 6 0 10 -69
10 -186z m33 -173 c-9 -14 -12 23 -13 174 -2 227 3 232 9 10 4 -99 5 -182 4
-184z m37 179 c0 -113 -4 -180 -10 -180 -6 0 -10 67 -10 180 0 113 4 180 10
180 6 0 10 -67 10 -180z m30 6 c0 -106 -4 -177 -10 -181 -7 -4 -10 57 -10 174
0 114 4 181 10 181 6 0 10 -65 10 -174z m30 -1 c0 -110 -4 -175 -10 -175 -6 0
-10 65 -10 175 0 110 4 175 10 175 6 0 10 -65 10 -175z m28 -2 c-1 -202 -6
-189 -10 30 -2 81 0 147 5 147 4 0 6 -80 5 -177z m38 3 c3 -111 1 -166 -6
-166 -6 0 -10 60 -10 172 0 94 2 169 5 166 3 -3 8 -80 11 -172z m34 4 c0 -107
-4 -170 -10 -170 -6 0 -10 63 -10 170 0 107 4 170 10 170 6 0 10 -63 10 -170z
m30 0 c0 -107 -4 -170 -10 -170 -6 0 -10 63 -10 170 0 107 4 170 10 170 6 0
10 -63 10 -170z m40 5 c0 -125 -3 -165 -12 -165 -10 0 -12 38 -10 165 4 219
22 219 22 0z m-885 -223 c-14 -15 -16 22 -8 190 l8 183 3 -184 c1 -101 0 -186
-3 -189z m-97 61 c7 -43 7 -53 -4 -53 -10 0 -14 15 -14 57 0 67 5 66 18 -4z"/>
<path d="M1350 2029 c-52 -50 -86 -86 -75 -80 28 15 192 170 180 170 -5 0 -53
-40 -105 -90z"/>
<path d="M315 486 c-27 -20 -35 -154 -11 -191 21 -32 80 -35 96 -6 17 33 12
61 -10 61 -15 0 -20 -7 -20 -26 0 -19 -4 -25 -17 -22 -15 3 -18 15 -18 78 0
63 3 75 18 78 12 2 17 -3 17 -17 0 -14 6 -21 20 -21 28 0 27 44 -2 64 -28 20
-49 20 -73 2z"/>
<path d="M863 493 c-7 -2 -13 -15 -13 -28 0 -13 -6 -25 -12 -28 -10 -3 -10 -9
0 -26 6 -11 12 -48 12 -81 0 -47 3 -60 15 -60 12 0 15 13 15 60 0 33 6 69 13
80 10 17 9 22 -3 30 -12 7 -12 12 -2 22 26 26 10 46 -25 31z"/>
<path d="M772 478 c7 -19 38 -22 38 -4 0 10 -9 16 -21 16 -12 0 -19 -5 -17
-12z"/>
<path d="M910 475 c0 -8 9 -15 20 -15 11 0 20 7 20 15 0 8 -9 15 -20 15 -11 0
-20 -7 -20 -15z"/>
<path d="M1190 461 c0 -26 -3 -29 -32 -27 l-33 1 0 -80 0 -80 48 -2 47 -2 0
110 c0 90 -3 109 -15 109 -10 0 -15 -10 -15 -29z m-2 -109 c3 -47 1 -52 -17
-52 -18 0 -21 6 -21 48 0 27 3 52 7 56 16 16 28 -4 31 -52z"/>
<path d="M1330 380 c0 -103 1 -110 20 -110 19 0 20 7 20 110 0 103 -1 110 -20
110 -19 0 -20 -7 -20 -110z"/>
<path d="M2260 380 c0 -103 1 -110 20 -110 19 0 20 7 20 110 0 103 -1 110 -20
110 -19 0 -20 -7 -20 -110z"/>
<path d="M688 458 c-3 -20 -9 -22 -51 -23 l-48 0 -5 -82 c-5 -78 -4 -83 15
-83 18 0 20 8 23 68 l3 67 33 3 32 3 0 -58 c0 -33 5 -64 12 -71 17 -17 48 -15
48 3 0 8 -4 15 -10 15 -5 0 -10 25 -10 55 0 30 5 55 10 55 6 0 10 7 10 15 0 8
-4 15 -10 15 -5 0 -10 9 -10 20 0 29 -38 27 -42 -2z"/>
<path d="M2600 462 c0 -10 -6 -24 -12 -31 -10 -11 -10 -14 0 -18 7 -3 12 -24
12 -58 0 -29 3 -60 6 -69 8 -21 54 -21 54 -1 0 8 -4 15 -10 15 -5 0 -10 25
-10 55 0 30 5 55 10 55 6 0 10 7 10 15 0 8 -4 15 -10 15 -5 0 -10 9 -10 20 0
13 -7 20 -20 20 -13 0 -20 -7 -20 -18z"/>
<path d="M3070 461 c0 -11 -6 -21 -12 -24 -10 -3 -10 -9 -1 -28 7 -13 14 -49
15 -79 3 -48 6 -55 26 -58 15 -2 22 2 22 12 0 9 -4 16 -10 16 -5 0 -10 25 -10
55 0 42 3 55 15 55 8 0 15 5 15 10 0 6 -7 13 -15 16 -8 4 -15 15 -15 25 0 10
-7 19 -15 19 -8 0 -15 -9 -15 -19z"/>
<path d="M462 428 c-7 -7 -12 -39 -12 -73 0 -67 11 -85 50 -85 14 0 31 5 38
12 17 17 15 48 -3 48 -8 0 -15 -7 -15 -16 0 -24 -35 -12 -38 14 -3 20 1 22 36
22 38 0 38 1 34 33 -2 17 -9 38 -14 45 -13 15 -60 16 -76 0z m56 -36 c2 -7 -6
-12 -17 -12 -21 0 -27 11 -14 24 9 9 26 2 31 -12z"/>
<path d="M780 438 c-1 -2 -3 -40 -6 -85 -5 -79 -4 -83 15 -83 20 0 21 6 21 85
0 69 -3 85 -15 85 -8 0 -15 -1 -15 -2z"/>
<path d="M917 433 c-4 -3 -7 -42 -7 -85 0 -71 2 -78 20 -78 18 0 20 7 20 85 0
64 -3 85 -13 85 -8 0 -17 -3 -20 -7z"/>
<path d="M996 424 c-18 -18 -22 -104 -6 -135 15 -26 75 -26 90 0 15 29 12 41
-10 41 -11 0 -20 -7 -20 -15 0 -20 -26 -19 -34 1 -9 24 2 34 40 34 29 0 34 3
34 23 0 55 -59 87 -94 51z m54 -29 c0 -8 -9 -15 -20 -15 -13 0 -18 5 -14 15 4
8 12 15 20 15 8 0 14 -7 14 -15z"/>
<path d="M1400 435 c0 -4 9 -43 21 -88 19 -73 19 -82 5 -93 -9 -6 -16 -16 -16
-23 0 -15 35 -14 47 2 14 16 57 196 50 204 -16 15 -35 -10 -42 -54 l-8 -48
-12 50 c-7 33 -17 51 -28 53 -9 2 -17 1 -17 -3z"/>
<path d="M1546 424 c-19 -19 -22 -124 -4 -142 7 -7 27 -12 45 -12 27 0 35 5
43 26 13 34 13 34 -10 34 -12 0 -20 -7 -20 -16 0 -9 -7 -14 -17 -12 -10 2 -18
12 -18 23 0 16 8 21 38 23 31 3 37 7 37 25 0 55 -59 87 -94 51z m54 -29 c0 -8
-9 -15 -20 -15 -13 0 -18 5 -14 15 4 8 12 15 20 15 8 0 14 -7 14 -15z"/>
<path d="M1670 355 c0 -68 3 -85 15 -85 11 0 15 16 17 67 2 55 6 68 21 71 15
3 17 -5 17 -67 0 -56 3 -71 15 -71 12 0 15 16 15 80 0 87 -12 106 -51 81 -12
-7 -19 -7 -19 -1 0 5 -7 10 -15 10 -12 0 -15 -16 -15 -85z"/>
<path d="M1810 421 c-12 -24 -13 -71 0 -91 5 -8 5 -19 1 -25 -4 -5 -7 -26 -7
-45 1 -32 4 -35 35 -38 59 -6 83 5 79 36 -3 23 -10 28 -48 36 -36 8 -40 11
-20 14 38 6 50 21 50 63 0 22 5 39 10 39 6 0 10 6 10 13 0 8 -17 13 -50 15
-40 2 -51 -2 -60 -17z m55 -46 c0 -16 -6 -30 -12 -32 -9 -3 -13 7 -13 32 0 25
4 35 13 33 6 -3 12 -17 12 -33z m20 -115 c8 -13 -20 -24 -41 -16 -20 8 -9 26
16 26 10 0 22 -5 25 -10z"/>
<path d="M1957 422 c-22 -24 -21 -32 3 -32 11 0 20 5 20 10 0 6 7 10 15 10 27
0 16 -28 -21 -49 -30 -18 -35 -25 -32 -54 3 -31 4 -32 56 -34 l52 -2 0 69 c0
49 -4 73 -16 84 -21 21 -57 20 -77 -2z m53 -97 c0 -18 -5 -25 -20 -25 -24 0
-26 13 -4 34 21 21 24 20 24 -9z"/>
<path d="M2080 354 c0 -77 2 -84 20 -84 18 0 20 7 20 66 0 57 3 67 20 71 36
10 23 30 -20 30 l-40 0 0 -83z"/>
<path d="M2340 354 c0 -77 2 -84 20 -84 18 0 20 7 20 70 0 56 3 70 15 70 12 0
15 -14 15 -70 0 -56 3 -70 15 -70 13 0 15 14 13 83 l-3 82 -47 1 -48 2 0 -84z"/>
<path d="M2486 424 c-24 -24 -19 -42 21 -79 40 -37 39 -57 -2 -35 -14 7 -28
10 -32 6 -13 -13 13 -41 41 -44 60 -7 77 52 26 90 -16 12 -30 28 -30 35 0 16
12 17 28 1 8 -8 15 -9 23 -1 7 7 5 15 -6 27 -21 20 -49 21 -69 0z"/>
<path d="M2685 431 c-3 -2 -5 -40 -5 -83 0 -71 2 -78 20 -78 18 0 20 7 20 66
0 57 3 67 20 71 35 9 23 31 -15 30 -20 -1 -38 -3 -40 -6z"/>
<path d="M2792 358 l3 -83 48 -1 47 -2 0 84 c0 67 -3 84 -15 84 -11 0 -15 -16
-17 -67 -2 -55 -6 -68 -20 -71 -16 -3 -18 5 -18 67 0 57 -3 71 -15 71 -13 0
-15 -14 -13 -82z"/>
<path d="M2937 422 c-19 -21 -23 -102 -7 -133 15 -26 75 -26 90 0 15 29 12 41
-10 41 -11 0 -20 -7 -20 -15 0 -8 -7 -15 -15 -15 -12 0 -15 13 -15 55 0 42 3
55 15 55 8 0 15 -7 15 -15 0 -8 9 -15 20 -15 24 0 26 22 4 44 -21 21 -57 20
-77 -2z"/>
<path d="M3160 425 c-18 -22 -23 -96 -8 -125 15 -28 60 -39 84 -19 18 14 19
130 2 147 -17 17 -63 15 -78 -3z m55 -71 c0 -38 -4 -49 -17 -52 -15 -3 -18 4
-18 46 0 27 3 52 7 56 16 16 28 -4 28 -50z"/>
<path d="M3290 354 c0 -67 3 -84 15 -84 11 0 15 16 17 68 3 61 5 67 26 70 40
6 25 29 -18 29 l-40 0 0 -83z"/>
</g>
</svg>
