<svg version="1.1" xmlns="http://www.w3.org/2000/svg" width="400px" height="200px" style="border: dashed 2px #aaa"><path fill="#" d="M63.80322265625,110.8369140625q0,2.6103515625-1.878662109375,4.11328125t-5.227294921875,1.5029296875q-3.0849609375,0-5.4580078125-1.16015625l0-3.796875q1.951171875,0.8701171875,3.302490234375,1.22607421875t2.471923828125,0.35595703125q1.3447265625,0,2.063232421875-0.51416015625t0.718505859375-1.529296875q0-0.56689453125-0.31640625-1.008544921875t-0.929443359375-0.850341796875t-2.498291015625-1.30517578125q-1.7666015625-0.83056640625-2.64990234375-1.59521484375t-1.41064453125-1.77978515625t-0.52734375-2.373046875q0-2.5576171875,1.733642578125-4.02099609375t4.792236328125-1.46337890625q1.5029296875,0,2.867431640625,0.35595703125t2.854248046875,1.001953125l-1.318359375,3.17724609375q-1.54248046875-0.6328125-2.551025390625-0.88330078125t-1.984130859375-0.25048828125q-1.16015625,0-1.77978515625,0.54052734375t-0.61962890625,1.41064453125q0,0.54052734375,0.25048828125,0.942626953125t0.797607421875,0.77783203125t2.590576171875,1.351318359375q2.70263671875,1.2919921875,3.70458984375,2.590576171875t1.001953125,3.183837890625z M79.277729492188,116.189453125l-0.54052734375-1.88525390625l-0.2109375,0q-0.64599609375,1.0283203125-1.83251953125,1.588623046875t-2.70263671875,0.560302734375q-2.59716796875,0-3.91552734375-1.390869140625t-1.318359375-4.001220703125l0-9.61083984375l4.02099609375,0l0,8.60888671875q0,1.59521484375,0.56689453125,2.392822265625t1.80615234375,0.797607421875q1.6875,0,2.43896484375-1.127197265625t0.75146484375-3.737548828125l0-6.9345703125l4.02099609375,0l0,14.7392578125l-3.0849609375,0z M98.720498046875,111.8125q0,2.267578125-1.575439453125,3.4541015625t-4.713134765625,1.1865234375q-1.6083984375,0-2.7421875-0.217529296875t-2.12255859375-0.639404296875l0-3.322265625q1.12060546875,0.52734375,2.524658203125,0.88330078125t2.471923828125,0.35595703125q2.1884765625,0,2.1884765625-1.265625q0-0.474609375-0.2900390625-0.771240234375t-1.001953125-0.67236328125t-1.8984375-0.876708984375q-1.70068359375-0.7119140625-2.498291015625-1.318359375t-1.16015625-1.390869140625t-0.362548828125-1.931396484375q0-1.96435546875,1.522705078125-3.038818359375t4.317626953125-1.074462890625q2.6630859375,0,5.18115234375,1.16015625l-1.212890625,2.900390625q-1.107421875-0.474609375-2.06982421875-0.77783203125t-1.96435546875-0.30322265625q-1.77978515625,0-1.77978515625,0.96240234375q0,0.54052734375,0.573486328125,0.93603515625t2.511474609375,1.17333984375q1.72705078125,0.69873046875,2.53125,1.30517578125t1.1865234375,1.3974609375t0.38232421875,1.88525390625z M113.07439941406,116.189453125l-0.77783203125-2.00390625l-0.10546875,0q-1.01513671875,1.27880859375-2.089599609375,1.773193359375t-2.801513671875,0.494384765625q-2.12255859375,0-3.342041015625-1.212890625t-1.219482421875-3.4541015625q0-2.3466796875,1.641357421875-3.460693359375t4.950439453125-1.232666015625l2.5576171875-0.0791015625l0-0.64599609375q0-2.2412109375-2.2939453125-2.2412109375q-1.7666015625,0-4.15283203125,1.06787109375l-1.33154296875-2.7158203125q2.54443359375-1.33154296875,5.642578125-1.33154296875q2.96630859375,0,4.54833984375,1.2919921875t1.58203125,3.9287109375l0,9.82177734375l-2.80810546875,0z M111.88787597656,109.3603515625l-1.5556640625,0.052734375q-1.75341796875,0.052734375-2.6103515625,0.6328125t-0.85693359375,1.7666015625q0,1.70068359375,1.951171875,1.70068359375q1.3974609375,0,2.234619140625-0.80419921875t0.837158203125-2.1357421875l0-1.212890625z M135.4834765625,116.189453125l-4.02099609375,0l0-8.60888671875q0-1.59521484375-0.56689453125-2.392822265625t-1.80615234375-0.797607421875q-1.6875,0-2.43896484375,1.127197265625t-0.75146484375,3.737548828125l0,6.9345703125l-4.02099609375,0l0-14.7392578125l3.07177734375,0l0.54052734375,1.88525390625l0.22412109375,0q0.67236328125-1.06787109375,1.852294921875-1.614990234375t2.682861328125-0.547119140625q2.57080078125,0,3.90234375,1.390869140625t1.33154296875,4.014404296875l0,9.61083984375z M158.10045898438,116.189453125l-4.0869140625,0l0-15.873046875l-5.23388671875,0l0-3.4013671875l14.5546875,0l0,3.4013671875l-5.23388671875,0l0,15.873046875z M178.28150878906,116.189453125l-0.54052734375-1.88525390625l-0.2109375,0q-0.64599609375,1.0283203125-1.83251953125,1.588623046875t-2.70263671875,0.560302734375q-2.59716796875,0-3.91552734375-1.390869140625t-1.318359375-4.001220703125l0-9.61083984375l4.02099609375,0l0,8.60888671875q0,1.59521484375,0.56689453125,2.392822265625t1.80615234375,0.797607421875q1.6875,0,2.43896484375-1.127197265625t0.75146484375-3.737548828125l0-6.9345703125l4.02099609375,0l0,14.7392578125l-3.0849609375,0z M195.66763671875,101.17333984375q0.8173828125,0,1.35791015625,0.11865234375l-0.30322265625,3.7705078125q-0.48779296875-0.1318359375-1.1865234375-0.1318359375q-1.9248046875,0-2.999267578125,0.98876953125t-1.074462890625,2.7685546875l0,7.50146484375l-4.02099609375,0l0-14.7392578125l3.04541015625,0l0.59326171875,2.478515625l0.19775390625,0q0.685546875-1.2392578125,1.852294921875-1.997314453125t2.537841796875-0.758056640625z M201.38628417969,97.64013671875q0-1.96435546875,2.1884765625-1.96435546875t2.1884765625,1.96435546875q0,0.93603515625-0.547119140625,1.456787109375t-1.641357421875,0.520751953125q-2.1884765625,0-2.1884765625-1.9775390625z M205.57866699219,116.189453125l-4.02099609375,0l0-14.7392578125l4.02099609375,0l0,14.7392578125z M221.93647460937,111.8125q0,2.267578125-1.575439453125,3.4541015625t-4.713134765625,1.1865234375q-1.6083984375,0-2.7421875-0.217529296875t-2.12255859375-0.639404296875l0-3.322265625q1.12060546875,0.52734375,2.524658203125,0.88330078125t2.471923828125,0.35595703125q2.1884765625,0,2.1884765625-1.265625q0-0.474609375-0.2900390625-0.771240234375t-1.001953125-0.67236328125t-1.8984375-0.876708984375q-1.70068359375-0.7119140625-2.498291015625-1.318359375t-1.16015625-1.390869140625t-0.362548828125-1.931396484375q0-1.96435546875,1.522705078125-3.038818359375t4.317626953125-1.074462890625q2.6630859375,0,5.18115234375,1.16015625l-1.212890625,2.900390625q-1.107421875-0.474609375-2.06982421875-0.77783203125t-1.96435546875-0.30322265625q-1.77978515625,0-1.77978515625,0.96240234375q0,0.54052734375,0.573486328125,0.93603515625t2.511474609375,1.17333984375q1.72705078125,0.69873046875,2.53125,1.30517578125t1.1865234375,1.3974609375t0.38232421875,1.88525390625z M242.1144921875,104.8515625l4.02099609375-7.9365234375l4.4033203125,0l-6.39404296875,11.77294921875l0,7.50146484375l-4.060546875,0l0-7.36962890625l-6.39404296875-11.90478515625l4.4296875,0z M257.70765136719,108.79345703125q0,2.1884765625,0.718505859375,3.30908203125t2.340087890625,1.12060546875q1.6083984375,0,2.313720703125-1.114013671875t0.705322265625-3.315673828125q0-2.1884765625-0.7119140625-3.28271484375t-2.33349609375-1.09423828125q-1.6083984375,0-2.3203125,1.087646484375t-0.7119140625,3.289306640625z M267.89856933594,108.79345703125q0,3.59912109375-1.8984375,5.62939453125t-5.28662109375,2.0302734375q-2.12255859375,0-3.744140625-0.929443359375t-2.49169921875-2.669677734375t-0.8701171875-4.060546875q0-3.6123046875,1.88525390625-5.6162109375t5.2998046875-2.00390625q2.12255859375,0,3.744140625,0.9228515625t2.49169921875,2.64990234375t0.8701171875,4.04736328125z M285.90432617187,101.4501953125l0,2.04345703125l-2.30712890625,0.59326171875q0.6328125,0.98876953125,0.6328125,2.21484375q0,2.373046875-1.654541015625,3.697998046875t-4.594482421875,1.324951171875l-0.72509765625-0.03955078125l-0.59326171875-0.06591796875q-0.61962890625,0.474609375-0.61962890625,1.0546875q0,0.8701171875,2.21484375,0.8701171875l2.5048828125,0q2.42578125,0,3.697998046875,1.04150390625t1.272216796875,3.05859375q0,2.583984375-2.155517578125,4.0078125t-6.189697265625,1.423828125q-3.0849609375,0-4.713134765625-1.074462890625t-1.628173828125-3.012451171875q0-1.33154296875,0.83056640625-2.22802734375t2.43896484375-1.27880859375q-0.61962890625-0.263671875-1.0810546875-0.863525390625t-0.46142578125-1.272216796875q0-0.84375,0.48779296875-1.404052734375t1.41064453125-1.100830078125q-1.16015625-0.5009765625-1.839111328125-1.6083984375t-0.678955078125-2.6103515625q0-2.41259765625,1.56884765625-3.73095703125t4.482421875-1.318359375q0.61962890625,0,1.469970703125,0.112060546875t1.087646484375,0.164794921875l5.1416015625,0z M274.52688476562,118.2724609375q0,0.83056640625,0.797607421875,1.30517578125t2.234619140625,0.474609375q2.162109375,0,3.38818359375-0.59326171875t1.22607421875-1.62158203125q0-0.83056640625-0.72509765625-1.14697265625t-2.2412109375-0.31640625l-2.0830078125,0q-1.107421875,0-1.852294921875,0.520751953125t-0.744873046875,1.377685546875z M275.99026367187,106.275390625q0,1.19970703125,0.547119140625,1.8984375t1.667724609375,0.69873046875q1.1337890625,0,1.6611328125-0.69873046875t0.52734375-1.8984375q0-2.6630859375-2.1884765625-2.6630859375q-2.21484375,0-2.21484375,2.6630859375z M299.54631347656,116.189453125l-0.77783203125-2.00390625l-0.10546875,0q-1.01513671875,1.27880859375-2.089599609375,1.773193359375t-2.801513671875,0.494384765625q-2.12255859375,0-3.342041015625-1.212890625t-1.219482421875-3.4541015625q0-2.3466796875,1.641357421875-3.460693359375t4.950439453125-1.232666015625l2.5576171875-0.0791015625l0-0.64599609375q0-2.2412109375-2.2939453125-2.2412109375q-1.7666015625,0-4.15283203125,1.06787109375l-1.33154296875-2.7158203125q2.54443359375-1.33154296875,5.642578125-1.33154296875q2.96630859375,0,4.54833984375,1.2919921875t1.58203125,3.9287109375l0,9.82177734375l-2.80810546875,0z M298.35979003906,109.3603515625l-1.5556640625,0.052734375q-1.75341796875,0.052734375-2.6103515625,0.6328125t-0.85693359375,1.7666015625q0,1.70068359375,1.951171875,1.70068359375q1.3974609375,0,2.234619140625-0.80419921875t0.837158203125-2.1357421875l0-1.212890625z"/><path fill="#" d=""/></svg>